<svg width="299" height="48" viewBox="0 0 299 48" fill="none" xmlns="http://www.w3.org/2000/svg">
<path d="M60.1772 24.0647C60.1772 15.3803 67.1876 8.3699 75.872 8.3699C82.2042 8.3699 87.2693 11.8967 89.8466 17.0081L83.425 20.1742C82.0686 17.2794 79.3094 15.1091 75.872 15.1091C71.1676 15.1091 67.3233 18.9996 67.3233 24.0647C67.3233 29.1299 71.1676 33.0667 75.872 33.0667C79.3094 33.0667 82.0686 30.8963 83.425 28.0015L89.8466 31.1676C87.2693 36.279 82.2042 39.8058 75.872 39.8058C67.1876 39.8058 60.1772 32.7954 60.1772 24.0647ZM92.3376 16.7368H99.077V20.3992C100.298 18.0933 102.197 16.7368 104.506 16.7368H106.405V23.3865H104.188C100.976 23.3865 99.484 25.1499 99.484 28.2728V39.3526H92.3376V16.7368ZM108.754 29.6724V16.7368H115.9V29.6724C115.9 32.1603 117.484 33.6986 119.88 33.6986C122.275 33.6986 123.86 32.1603 123.86 29.6724V16.7368H131.006V29.6724C131.006 35.6871 126.301 39.8027 119.88 39.8027C113.458 39.8027 108.754 35.6871 108.754 29.6724ZM134.4 16.7368H141.41V19.4959C142.995 17.6863 145.208 16.5117 147.789 16.5117C153.307 16.5117 156.926 20.538 156.926 26.3275V39.3526H149.78V26.3275C149.78 23.9291 148.017 22.1195 145.665 22.1195C143.312 22.1195 141.549 23.9291 141.549 26.3275V39.3526H134.403V16.7368H134.4ZM176.691 30.1256L182.526 32.8848C180.671 36.9541 176.647 39.8058 171.761 39.8058C165.158 39.8058 159.864 34.5588 159.864 28.0447C159.864 21.5306 165.158 16.2836 171.761 16.2836C176.691 16.2836 180.717 19.1784 182.573 23.2478L176.694 26.0532C175.926 23.9723 174.024 22.5264 171.764 22.5264C168.78 22.5264 166.517 24.968 166.517 28.0447C166.517 31.1214 168.78 33.563 171.764 33.563C173.981 33.563 175.88 32.1603 176.694 30.1256H176.691ZM184.832 8.8231H191.978V19.4528C193.563 17.6432 195.733 16.5117 198.221 16.5117C203.739 16.5117 207.359 20.538 207.359 26.3275V39.3526H200.213V26.3275C200.213 23.9291 198.449 22.1195 196.097 22.1195C193.745 22.1195 191.981 23.9291 191.981 26.3275V39.3526H184.835V8.8231H184.832ZM220.337 30.215L225.131 16.7368H232.277L223.14 40.7091C221.241 45.6848 218.254 47.8089 213.188 47.8089H209.933V41.5661H213.188C215.134 41.5661 216.129 40.7522 216.672 39.3958L207.67 16.7368H215.312L220.334 30.215H220.337ZM234.087 16.7368H240.826V20.3992C242.047 18.0933 243.946 16.7368 246.255 16.7368H248.154V23.3865H245.938C242.725 23.3865 241.233 25.1499 241.233 28.2728V39.3526H234.087V16.7368ZM249.15 28.0447C249.15 21.5769 254.443 16.2836 261.136 16.2836C267.829 16.2836 273.122 21.5769 273.122 28.0447C273.122 34.5125 267.829 39.8058 261.136 39.8058C254.443 39.8058 249.15 34.5588 249.15 28.0447ZM255.8 28.0447C255.8 31.2108 258.152 33.563 261.136 33.563C264.12 33.563 266.472 31.2108 266.472 28.0447C266.472 24.8786 264.12 22.5264 261.136 22.5264C258.152 22.5264 255.8 24.8786 255.8 28.0447ZM284.427 39.3526C278.502 39.3526 276.06 36.7291 276.06 31.1214V8.8231H283.206V31.1214C283.206 32.3884 283.749 33.1129 285.016 33.1129H286.19V39.3557H284.427V39.3526ZM296.367 39.3526C290.442 39.3526 288 36.7291 288 31.1214V8.8231H295.146V31.1214C295.146 32.3884 295.689 33.1129 296.956 33.1129H298.13V39.3557H296.367V39.3526ZM5.81735 26.8732C5.82968 15.2231 15.2848 5.78652 26.9349 5.79885C38.0886 5.81118 47.2108 14.4771 47.9568 25.4366C47.9846 24.968 48 24.4963 48 24.0247C48.0123 10.7684 37.2809 0.0123406 24.0247 1.06113e-05C10.7684 -0.0123194 0.0123406 10.7222 1.06113e-05 23.9753C-0.0123194 37.2316 10.7222 47.9877 23.9753 48C24.5241 48 25.0667 47.9815 25.6062 47.9476C14.5542 47.2724 5.80502 38.0917 5.81735 26.8732ZM38.3846 27.1846C33.8559 27.1815 30.1873 23.5037 30.1935 18.9749C30.1965 15.4235 32.4594 12.4023 35.6193 11.2647C33.1191 9.9453 30.2705 9.1961 27.2432 9.1931C17.2948 9.1838 9.2208 17.2393 9.2116 27.1877C9.2023 37.136 17.2578 45.21 27.2062 45.2193C37.1545 45.2285 45.2285 37.173 45.2378 27.2216C45.2378 26.0933 45.136 24.9927 44.9387 23.9198C43.4405 25.9021 41.0636 27.1846 38.3846 27.1815V27.1846Z" fill="#F47521"/>
</svg>
